<svg width="362" height="417" xmlns="http://www.w3.org/2000/svg" xmlns:xlink="http://www.w3.org/1999/xlink" xml:space="preserve" overflow="hidden"><defs><clipPath id="clip0"><rect x="1045" y="825" width="362" height="417"/></clipPath></defs><g clip-path="url(#clip0)" transform="translate(-1045 -825)"><path d="M1219.37 1020.07C1215.68 1020.07 1212.56 1021.43 1210.02 1024.14 1207.48 1026.85 1206.2 1029.95 1206.2 1033.41 1206.2 1037.11 1207.48 1040.26 1210.02 1042.85 1212.56 1045.45 1215.68 1046.75 1219.37 1046.75 1222.95 1046.75 1226.1 1045.45 1228.82 1042.85 1231.53 1040.26 1232.89 1037.11 1232.89 1033.41 1232.89 1031.68 1232.51 1030 1231.76 1028.39 1231.01 1026.77 1230.03 1025.35 1228.82 1024.14 1227.6 1022.93 1226.16 1021.95 1224.49 1021.19 1222.81 1020.44 1221.11 1020.07 1219.37 1020.07ZM1222.15 907.957C1220.41 907.957 1218.48 908.044 1216.34 908.217 1214.2 908.39 1211.92 908.679 1209.5 909.084 1207.07 909.488 1204.64 910.008 1202.22 910.643 1199.79 911.278 1197.48 912.058 1195.29 912.982 1194.36 913.444 1193.76 913.849 1193.47 914.195 1193.18 914.542 1193.04 915.119 1193.04 915.928L1193.04 933.083C1193.04 934.238 1193.21 934.96 1193.56 935.249 1193.9 935.537 1194.71 935.451 1195.98 934.989 1199.68 933.718 1203.55 932.678 1207.59 931.87 1211.63 931.061 1216.2 930.657 1221.28 930.657 1225.32 930.657 1228.73 931.87 1231.5 934.295 1234.28 936.721 1235.66 940.129 1235.66 944.519 1235.66 948.562 1234.74 952.576 1232.89 956.562 1231.04 960.547 1228.1 965.081 1224.05 970.164 1218.97 976.402 1215.27 982.582 1212.96 988.705 1210.65 994.827 1209.5 1001.41 1209.5 1008.46 1209.5 1010.08 1209.79 1011.12 1210.36 1011.58 1210.94 1012.04 1211.86 1012.27 1213.14 1012.27L1227.69 1012.27C1229.08 1012.27 1230.03 1012.01 1230.55 1011.49 1231.07 1010.97 1231.33 1009.96 1231.33 1008.46 1231.33 1005.22 1231.62 1002.22 1232.2 999.448 1232.77 996.676 1233.78 993.817 1235.23 990.871 1236.67 987.925 1238.55 984.748 1240.86 981.341 1243.17 977.933 1246.06 973.918 1249.52 969.298 1252.76 965.023 1255.1 960.778 1256.54 956.562 1257.99 952.345 1258.71 947.465 1258.71 941.92 1258.71 936.952 1257.78 932.389 1255.94 928.231 1254.09 924.072 1251.52 920.491 1248.22 917.487 1244.93 914.484 1241.06 912.145 1236.61 910.47 1232.17 908.795 1227.34 907.957 1222.15 907.957ZM1227 829C1306.53 829 1371 893.471 1371 973 1371 1052.53 1306.53 1117 1227 1117 1147.47 1117 1083 1052.53 1083 973 1083 893.471 1147.47 829 1227 829Z" fill="#FFFFFF" fill-rule="evenodd" fill-opacity="1"/><path d="M1351.34 1074 1354.28 1077.07C1386.85 1118.25 1407 1175.15 1407 1238L1047 1238C1047 1175.15 1067.15 1118.25 1099.72 1077.07L1102.66 1074 1113.24 1086.89C1142.36 1116.16 1182.58 1134.26 1227 1134.26 1271.42 1134.26 1311.64 1116.16 1340.76 1086.89Z" fill="#FFFFFF" fill-rule="evenodd" fill-opacity="1"/></g></svg>